<?xml version="1.0" encoding="UTF-8"?>
<svg version="1.1" xmlns="http://www.w3.org/2000/svg" width="1280" height="720">
<path d="M0 0 C6.37346624 4.45011252 11.98085649 9.63072532 16.640625 15.84375 C16.970625 8.58375 17.300625 1.32375 17.640625 -6.15625 C34.800625 -6.15625 51.960625 -6.15625 69.640625 -6.15625 C69.640625 50.27375 69.640625 106.70375 69.640625 164.84375 C52.480625 164.84375 35.320625 164.84375 17.640625 164.84375 C17.310625 157.58375 16.980625 150.32375 16.640625 142.84375 C15.444375 144.308125 14.248125 145.7725 13.015625 147.28125 C3.05871478 158.30106429 -10.89422867 165.97260762 -25.89208984 167.02075195 C-50.35878375 167.58056418 -69.19862205 163.25770291 -87.47265625 145.828125 C-104.69257713 127.77228563 -110.69919934 103.36710552 -110.796875 79.15625 C-110.8069458 77.87451904 -110.8170166 76.59278809 -110.82739258 75.2722168 C-110.62116406 52.41595378 -103.47688503 31.16776051 -88.359375 13.84375 C-87.83988281 13.22886719 -87.32039063 12.61398437 -86.78515625 11.98046875 C-77.51326154 1.8210879 -65.35537211 -3.57995596 -52.359375 -7.15625 C-51.74376709 -7.33438232 -51.12815918 -7.51251465 -50.49389648 -7.69604492 C-34.0393615 -11.24365998 -14.44576101 -8.47715317 0 0 Z M-50.359375 51.84375 C-57.85984811 63.98737313 -59.2211709 77.70965641 -56.671875 91.5859375 C-53.69634233 102.12428238 -48.38532407 110.51407716 -39.359375 116.84375 C-34.57450286 119.51645447 -29.85556801 121.38573392 -24.359375 121.84375 C-23.72902344 121.90691406 -23.09867188 121.97007812 -22.44921875 122.03515625 C-12.59768495 122.58941677 -2.81853156 119.31749895 4.640625 112.88671875 C14.07050495 103.25424373 17.49705167 92.3362596 17.828125 79.03125 C17.66462048 67.04091847 13.98822394 55.6580964 5.640625 46.84375 C-2.62565076 39.59441502 -11.87024556 36.15704243 -22.88671875 36.55859375 C-33.91495295 37.83041223 -43.45135052 43.14974845 -50.359375 51.84375 Z " fill="#FFFFFF" transform="translate(551.359375,272.15625)"/>
<path d="M0 0 C6.37346624 4.45011252 11.98085649 9.63072532 16.640625 15.84375 C16.970625 8.58375 17.300625 1.32375 17.640625 -6.15625 C34.800625 -6.15625 51.960625 -6.15625 69.640625 -6.15625 C69.640625 50.27375 69.640625 106.70375 69.640625 164.84375 C52.480625 164.84375 35.320625 164.84375 17.640625 164.84375 C17.310625 157.58375 16.980625 150.32375 16.640625 142.84375 C15.444375 144.308125 14.248125 145.7725 13.015625 147.28125 C3.05871478 158.30106429 -10.89422867 165.97260762 -25.89208984 167.02075195 C-50.35878375 167.58056418 -69.19862205 163.25770291 -87.47265625 145.828125 C-104.69257713 127.77228563 -110.69919934 103.36710552 -110.796875 79.15625 C-110.8069458 77.87451904 -110.8170166 76.59278809 -110.82739258 75.2722168 C-110.62116406 52.41595378 -103.47688503 31.16776051 -88.359375 13.84375 C-87.83988281 13.22886719 -87.32039063 12.61398437 -86.78515625 11.98046875 C-77.51326154 1.8210879 -65.35537211 -3.57995596 -52.359375 -7.15625 C-51.74376709 -7.33438232 -51.12815918 -7.51251465 -50.49389648 -7.69604492 C-34.0393615 -11.24365998 -14.44576101 -8.47715317 0 0 Z M-50.359375 51.84375 C-57.85984811 63.98737313 -59.2211709 77.70965641 -56.671875 91.5859375 C-53.69634233 102.12428238 -48.38532407 110.51407716 -39.359375 116.84375 C-34.57450286 119.51645447 -29.85556801 121.38573392 -24.359375 121.84375 C-23.72902344 121.90691406 -23.09867188 121.97007812 -22.44921875 122.03515625 C-12.59768495 122.58941677 -2.81853156 119.31749895 4.640625 112.88671875 C14.07050495 103.25424373 17.49705167 92.3362596 17.828125 79.03125 C17.66462048 67.04091847 13.98822394 55.6580964 5.640625 46.84375 C-2.62565076 39.59441502 -11.87024556 36.15704243 -22.88671875 36.55859375 C-33.91495295 37.83041223 -43.45135052 43.14974845 -50.359375 51.84375 Z " fill="#FFFFFF" transform="translate(330.359375,272.15625)"/>
<path d="M0 0 C17.16 0 34.32 0 52 0 C52.33 25.41 52.66 50.82 53 77 C56.3 73.7 59.6 70.4 63 67 C78.95886463 55.47898758 97.59977244 52.31124265 116.8828125 54.42578125 C130.9593496 56.82084967 142.07835488 62.80172909 152 73 C152.82371094 73.77537109 152.82371094 73.77537109 153.6640625 74.56640625 C162.02421723 83.12774117 167.0116755 96.44799896 169 108 C169.17240707 108.98319717 169.34481415 109.96639435 169.52244568 110.97938538 C170.22762887 115.99786361 170.13131764 121.01769514 170.11352539 126.07592773 C170.11367142 127.16934982 170.11381744 128.26277191 170.1139679 129.389328 C170.11327371 132.98743708 170.10550443 136.58549377 170.09765625 140.18359375 C170.09579032 142.68465649 170.09436724 145.1857196 170.09336853 147.68678284 C170.08994629 153.58685889 170.08207245 159.48691573 170.07201904 165.38698393 C170.05774969 173.94824856 170.05253734 182.50951961 170.04621124 191.07079315 C170.03652618 203.04721088 170.01735993 215.02357986 170 227 C152.84 227 135.68 227 118 227 C117.94392578 216.23761719 117.94392578 216.23761719 117.88671875 205.2578125 C117.85642719 200.70049724 117.82527147 196.14322048 117.79101562 191.5859375 C117.7367776 184.35939518 117.68566397 177.13292899 117.65356445 169.90625 C117.62747167 164.07707949 117.58702669 158.24816599 117.53681374 152.41915512 C117.52018545 150.20016563 117.50864612 147.98113173 117.50238609 145.76208878 C117.49270115 142.64336737 117.46458894 139.52529754 117.43237305 136.40673828 C117.43380814 135.49826645 117.43524323 134.58979462 117.4367218 133.65379333 C117.27692916 122.6479306 114.0169632 113.2558662 106.375 105.25 C98.02118412 98.99523938 88.12715965 97.86069454 78 99 C70.47057793 100.76000241 63.98395959 103.49905537 59.6015625 110.109375 C53.86337428 119.99365297 52.86889348 129.51626761 52.79467773 140.72070312 C52.78477814 141.65821411 52.77487854 142.5957251 52.76467896 143.56164551 C52.73330107 146.63482205 52.70840109 149.708014 52.68359375 152.78125 C52.6630037 154.92216372 52.64200672 157.06307357 52.62062073 159.20397949 C52.56561176 164.81971075 52.51610968 170.4354774 52.46777344 176.05126953 C52.40853619 182.7995386 52.34242549 189.54774345 52.27747345 196.29595947 C52.17973063 206.53060019 52.09069225 216.76528344 52 227 C34.84 227 17.68 227 0 227 C0 152.09 0 77.18 0 0 Z " fill="#FFFFFF" transform="translate(854,210)"/>
<path d="M0 0 C123.68270033 0 123.68270033 0 145.6796875 20.65234375 C159.01796118 34.14780247 164.30702861 51.47227033 164.2421875 70.19311523 C163.94684826 87.5756751 158.41389114 103.44431417 146.1484375 115.9609375 C145.43945312 116.63382812 144.73046875 117.30671875 144 118 C143.41476563 118.56976563 142.82953125 119.13953125 142.2265625 119.7265625 C126.11757265 134.47422926 104.14963233 138.22704184 83.0546875 138.09765625 C81.86081421 138.09614563 81.86081421 138.09614563 80.64282227 138.09460449 C77.72019981 138.08944282 74.79759818 138.07548269 71.875 138.0625 C65.31625 138.041875 58.7575 138.02125 52 138 C52 163.41 52 188.82 52 215 C34.84 215 17.68 215 0 215 C0 144.05 0 73.1 0 0 Z M52 42 C52 59.82 52 77.64 52 96 C57.878125 96.0825 63.75625 96.165 69.8125 96.25 C71.64401611 96.28641602 73.47553223 96.32283203 75.36254883 96.36035156 C85.57290699 96.47829367 94.80479346 95.95967345 103.4375 89.8125 C109.69281494 82.94691043 111.08540394 75.11382 111 66 C110.47726546 59.02649875 107.81804969 53.09449516 103 48 C95.33500796 42.77386906 87.87672605 41.8379976 78.7578125 41.90234375 C78.07581787 41.90335083 77.39382324 41.90435791 76.69116211 41.90539551 C74.16909071 41.91058611 71.64704348 41.92454705 69.125 41.9375 C63.47375 41.958125 57.8225 41.97875 52 42 Z " fill="#FFFFFF" transform="translate(27,222)"/>
<path d="M0 0 C17.49 0 34.98 0 53 0 C53.02578125 7.30769531 53.0515625 14.61539062 53.078125 22.14453125 C53.10330685 26.788446 53.1296502 31.43229649 53.16015625 36.07617188 C53.20841158 43.43872275 53.25248639 50.80112478 53.27099609 58.16381836 C53.28619773 64.10326851 53.32070614 70.04232791 53.36830902 75.98160362 C53.38308657 78.24163087 53.39103892 80.50171392 53.39188385 82.76178932 C53.39426613 85.9403253 53.42144804 89.11779239 53.45410156 92.29614258 C53.4490712 93.21972061 53.44404083 94.14329865 53.43885803 95.09486389 C53.58265578 104.20861227 56.25145471 114.4564738 63 121 C72.01217265 127.36452871 81.13643603 128.82671593 92 128 C99.56860863 126.65633578 106.05851632 124.00123299 110.69140625 117.69921875 C115.92994644 109.38066939 117.29656977 102.42336496 117.31884766 92.75024414 C117.32889328 91.74460419 117.3389389 90.73896423 117.34928894 89.70285034 C117.38004488 86.39695783 117.3971351 83.09114604 117.4140625 79.78515625 C117.43278023 77.48586842 117.4523541 75.18658742 117.4727478 72.88731384 C117.52401091 66.84907052 117.5636679 60.81080495 117.60089111 54.77246094 C117.64801899 47.52025553 117.70959193 40.26816005 117.76873779 33.01604462 C117.85687905 22.01074093 117.92669459 11.00545755 118 0 C135.49 0 152.98 0 171 0 C171 56.43 171 112.86 171 171 C153.51 171 136.02 171 118 171 C117.505 160.605 117.505 160.605 117 150 C116.13375 151.134375 115.2675 152.26875 114.375 153.4375 C104.1735494 164.99095007 89.10752143 171.31200878 74 173 C54.99303182 174.12313903 37.08409387 170.23402288 22.4375 157.5625 C6.18348768 141.58074919 0.14546425 121.11725639 -0.12025452 98.72895813 C-0.12309827 96.88742148 -0.12062217 95.04587087 -0.11352539 93.2043457 C-0.11367142 92.18836807 -0.11381744 91.17239044 -0.1139679 90.12562561 C-0.11327814 86.80898815 -0.1055302 83.49240875 -0.09765625 80.17578125 C-0.09578873 77.85979747 -0.09436641 75.5438133 -0.09336853 73.22782898 C-0.08956963 67.16328826 -0.07976205 61.09877189 -0.06866455 55.03424072 C-0.05658451 47.74112705 -0.05203567 40.44800518 -0.04621124 33.15488434 C-0.03654868 22.10323935 -0.01737377 11.05164767 0 0 Z " fill="#FFFFFF" transform="translate(1071,266)"/>
<path d="M0 0 C12.16958724 10.36452885 20.24602441 24.15368053 22.6875 40.125 C22.6875 41.445 22.6875 42.765 22.6875 44.125 C6.5175 44.125 -9.6525 44.125 -26.3125 44.125 C-27.3025 41.155 -28.2925 38.185 -29.3125 35.125 C-33.34937304 29.93473466 -38.54669919 26.89262262 -44.95703125 25.5859375 C-51.13259309 24.84314265 -56.3792528 25.33428153 -62.3125 27.125 C-63.7665625 27.4653125 -63.7665625 27.4653125 -65.25 27.8125 C-67.63923034 29.06149507 -67.63923034 29.06149507 -68.6875 32.3125 C-69.36469379 36.44338212 -69.50352019 39.10530685 -68.3125 43.125 C-60.79948378 52.14061946 -44.23583405 54.32951097 -33.4375 57.0625 C-3.2419048 64.90577185 -3.2419048 64.90577185 7.6875 74.125 C8.40421875 74.71925781 9.1209375 75.31351562 9.859375 75.92578125 C18.86423471 84.10124599 22.93524027 94.86536654 23.90234375 106.76953125 C24.37766772 120.05958934 20.09005506 131.0767332 11.6875 141.1875 C-0.16519038 153.8042481 -17.59295886 160.28710451 -34.67041016 161.33007812 C-38.30379823 161.42850854 -41.92783094 161.45390451 -45.5625 161.4375 C-46.84576172 161.43258545 -48.12902344 161.4276709 -49.45117188 161.42260742 C-72.05977645 161.14272691 -93.16503229 154.29671759 -109.546875 138.140625 C-118.63501471 128.60245362 -124.3125 116.31772254 -124.3125 103.125 C-107.1525 103.125 -89.9925 103.125 -72.3125 103.125 C-71.3225 106.095 -70.3325 109.065 -69.3125 112.125 C-64.87856832 118.16661592 -58.53814026 120.90793465 -51.3125 122.125 C-43.1278324 123.01764424 -36.1094511 121.68213033 -29.25 117.0625 C-26.84288195 113.41299844 -26.71543399 110.91277513 -26.6484375 106.625 C-27.62431265 102.95111708 -29.37647916 101.49655222 -32.3125 99.125 C-34.8359887 97.98752943 -37.12559298 97.11192825 -39.75 96.3125 C-40.50643799 96.06951172 -41.26287598 95.82652344 -42.04223633 95.57617188 C-49.13429475 93.35847781 -56.32759864 91.51579939 -63.51623535 89.64248657 C-103.94138855 79.09714594 -103.94138855 79.09714594 -114.5546875 61.0078125 C-120.78228655 48.23441591 -120.54154506 34.42986087 -116.3125 21.125 C-109.53062206 5.60070124 -97.85086976 -3.54657945 -82.3125 -9.875 C-56.70140939 -19.23289849 -21.846907 -16.72961347 0 0 Z " fill="#FFFFFF" transform="translate(786.3125,277.875)"/>
</svg>
